<svg width="100" height="64" viewBox="0 0 100 64" fill="none" xmlns="http://www.w3.org/2000/svg">
<path d="M99.1109 4.80213C98.5555 4.43253 97.8434 4.34198 97.2047 4.5654L80.2207 10.4097C78.115 11.1336 76.4385 12.5928 75.5006 14.5176C75.3248 14.8785 75.2094 15.2535 75.0938 15.6279C72.1773 14.8434 66.7574 13.205 61.3711 10.5792C54.4215 7.19012 48.5393 7.6231 41.801 12.4168C39.0918 12.4599 35.3063 12.7681 31.592 13.0779C29.2564 13.2728 27.0492 13.4523 25.2594 13.5556C25.2154 12.5384 24.9639 11.529 24.4998 10.5755C23.5619 8.65041 21.8855 7.19123 19.7797 6.46755L2.79551 0.62287C2.15879 0.401479 1.44258 0.492033 0.889258 0.8596C0.331641 1.22939 0 1.83183 0 2.47475V41.8987C0 42.9883 0.931836 43.87 2.0834 43.87H8.16856C10.7566 43.87 13.1645 42.715 14.7209 40.85C15.55 41.4465 16.532 42.1451 17.5619 42.8767C19.9932 44.6074 22.6543 46.4957 23.8221 47.4217C31.5797 53.5663 40.9059 60.2017 42.7633 61.3567C44.4986 62.4347 47.6236 63.5821 50 63.5821C50.9297 63.5821 53.2715 63.5821 54.9154 62.2672C56.6102 62.8967 58.4371 62.866 60.1359 62.1575C61.8307 61.451 63.202 60.1189 63.9994 58.4999C65.627 58.8155 67.4967 58.5845 69.1914 57.7799C70.7803 57.0272 71.9502 55.8876 72.5768 54.5555C74.0822 54.6864 75.6896 54.2225 77.1279 53.181C79.183 51.6946 80.124 49.4996 79.8578 47.3341L85.1424 44.5678C86.69 46.5528 89.1498 47.8122 91.8312 47.8122H97.9164C99.068 47.8122 99.9998 46.9305 99.9998 45.8409V6.41728C100 5.77418 99.6684 5.17173 99.1109 4.80213ZM74.5992 50.0494C73.8932 50.5614 72.9045 50.8464 72.465 50.4306C72.4426 50.4094 72.4078 50.4114 72.3848 50.3911C72.3449 50.3561 72.3252 50.309 72.282 50.2765C70.7928 49.1638 64.1195 42.7035 59.9957 38.6341C59.2002 37.8468 57.8799 37.8178 57.0518 38.5744C56.2197 39.3271 56.1912 40.5745 56.9887 41.3599C57.9566 42.3158 65.727 49.973 68.8369 52.651C68.6047 53.5166 67.7566 54.051 67.326 54.2554C65.9914 54.8887 64.5998 54.7828 64.0789 54.3247C64.0635 54.311 64.0402 54.3118 64.0244 54.2985C63.999 54.277 63.9877 54.2469 63.9607 54.2266C61.4623 52.3381 55.1941 46.0357 53.776 44.5765C52.9967 43.7737 51.6805 43.7236 50.832 44.4592C49.9857 45.1965 49.9287 46.4439 50.708 47.2446C50.7764 47.3147 56.9193 53.5844 60.3695 56.4967C60.0305 57.4185 59.3396 58.1819 58.4533 58.552C57.7992 58.827 56.7762 58.968 55.6072 58.1506C52.6154 55.7505 46.6113 49.7032 45.4305 48.5074C44.6473 47.7103 43.3248 47.6701 42.4865 48.4131C41.6463 49.1562 41.6016 50.4036 42.3869 51.1986C43.7869 52.6164 47.925 56.7663 51.0707 59.5762C50.7193 59.6167 50.3504 59.6398 50 59.6398C48.6205 59.6398 46.2504 58.8063 45.0522 58.0612C43.5914 57.1525 34.4197 50.6769 26.4994 44.4013C25.3012 43.4503 22.5668 41.5042 20.0643 39.7255C18.723 38.7729 17.4873 37.8945 16.5766 37.2316L24.377 17.5474C26.4018 17.4637 29.1012 17.2429 31.958 17.0045C33.5738 16.8698 35.191 16.7384 36.7367 16.6245C34.3611 18.9308 30.8291 23.0652 31.2947 26.9394C31.5084 28.7027 32.5277 30.1715 34.2469 31.1879C35.2234 31.7654 36.4279 32.0579 37.8236 32.0579C40.7838 32.0579 44.7064 30.6623 46.9891 27.9807C48.9482 27.7131 50.2707 27.2397 51.7152 26.562C54.1566 28.7334 57.4301 31.286 60.8686 33.9675C66.8541 38.6337 73.6391 43.9236 75.4336 46.89C76.4322 48.5401 75.0469 49.726 74.5992 50.0494Z" fill="#B582CD"/>
</svg>
