<svg width="100" height="85" viewBox="0 0 100 85" fill="none" xmlns="http://www.w3.org/2000/svg">
<path d="M6.25 45.1672V76.4746C6.25 79.3549 9.05625 81.6925 12.5 81.6925H43.75V45.1672H6.25Z" fill="#62DBA1"/>
<path d="M93.75 24.2957H73.975C75.3938 23.4869 76.6125 22.6834 77.4625 21.9633C82.5062 17.7316 82.5062 10.844 77.4625 6.61228C72.5625 2.49015 64.025 2.50059 59.1313 6.61228C56.4188 8.88207 49.2313 18.1229 50.225 24.2957H49.775C50.7625 18.1229 43.575 8.88207 40.8688 6.61228C35.9688 2.50059 27.4312 2.50059 22.5375 6.61228C17.5 10.844 17.5 17.7316 22.5312 21.9633C23.3875 22.6834 24.6063 23.4869 26.025 24.2957H6.25C2.80625 24.2957 0 26.6385 0 29.5136V37.3404C0 38.7806 1.4 39.9494 3.125 39.9494H43.75V29.5136H56.25V39.9494H96.875C98.6 39.9494 100 38.7806 100 37.3404V29.5136C100 26.6385 97.2 24.2957 93.75 24.2957ZM43.3812 24.1235C43.3812 24.1235 43.1188 24.2957 42.225 24.2957C37.9062 24.2957 29.6625 20.5493 26.9688 18.2847C24.35 16.0828 24.35 12.4928 26.9688 10.2909C28.2375 9.22645 29.9187 8.64204 31.7062 8.64204C33.4875 8.64204 35.1688 9.22645 36.4375 10.2909C40.65 13.8286 44.8375 22.866 43.3812 24.1235ZM57.7687 24.2957C56.8812 24.2957 56.6188 24.1287 56.6188 24.1235C55.1625 22.866 59.35 13.8286 63.5625 10.2909C66.0813 8.16722 70.4875 8.15678 73.0312 10.2909C75.6562 12.4928 75.6562 16.0828 73.0312 18.2847C70.3375 20.5493 62.0938 24.2957 57.7687 24.2957Z" fill="#62DBA1"/>
<path d="M56.25 45.1672V81.6925H87.5C90.95 81.6925 93.75 79.3549 93.75 76.4746V45.1672H56.25Z" fill="#62DBA1"/>
</svg>
