<svg width="76" height="85" viewBox="0 0 76 85" fill="none" xmlns="http://www.w3.org/2000/svg">
<path d="M65.7917 32.1728H62.6667V21.737C62.6667 10.2263 51.4542 0.865417 37.6667 0.865417C23.8792 0.865417 12.6667 10.2263 12.6667 21.737V32.1728H9.54169C4.37502 32.1728 0.166687 35.6827 0.166687 39.9996V76.5248C0.166687 80.8417 4.37502 84.3516 9.54169 84.3516H65.7917C70.9584 84.3516 75.1667 80.8417 75.1667 76.5248V39.9996C75.1667 35.6827 70.9584 32.1728 65.7917 32.1728ZM21 21.737C21 14.0632 28.475 7.8226 37.6667 7.8226C46.8584 7.8226 54.3334 14.0632 54.3334 21.737V32.1728H21V21.737ZM41.8334 59.0344V66.9587C41.8334 68.8789 39.9709 70.4373 37.6667 70.4373C35.3625 70.4373 33.5 68.8789 33.5 66.9587V59.0344C31.0209 57.8274 29.3334 55.608 29.3334 53.0443C29.3334 49.2074 33.0709 46.0871 37.6667 46.0871C42.2625 46.0871 46 49.2074 46 53.0443C46 55.608 44.3125 57.8274 41.8334 59.0344Z" fill="#8BB6DE"/>
</svg>
