<svg width="28" height="28" viewBox="0 0 28 28" fill="none" xmlns="http://www.w3.org/2000/svg">
<path d="M22.9473 5.71462e-05L15.441 7.50671L17.985 10.0509L25.4913 2.54426L22.9473 5.71462e-05Z" fill="#DEDEDE"/>
<path d="M26.7151 3.76676L26.6592 3.71082L18.8819 11.4885C17.9329 12.8655 16.8128 14.2025 15.5418 15.4735C14.2205 16.7949 12.8301 17.9519 11.3983 18.9227L3.68705 26.6346L3.85521 26.8027L3.87867 26.8253C5.45611 28.283 8.11909 28.3877 11.3769 27.1202C14.4325 25.9314 17.7422 23.6498 20.696 20.6959C23.6852 17.7066 25.9799 14.3623 27.1572 11.2791C27.7199 9.80548 28 8.45793 28 7.28002C28.0001 5.82074 27.5701 4.62178 26.7151 3.76676Z" fill="#DEDEDE"/>
<path d="M7.50629 15.4412L0 22.9479L2.51937 25.4674L10.0257 17.9607L7.50629 15.4412Z" fill="#DEDEDE"/>
</svg>
