<svg width="100" height="85" viewBox="0 0 100 85" fill="none" xmlns="http://www.w3.org/2000/svg">
<path d="M96.5587 46.4525L45.0529 3.49761C42.7796 1.60322 39.6535 0.587671 36.4445 0.651586L9.38806 1.23215C4.599 1.33158 0.743513 4.55399 0.630804 8.54872L0.00346332 31.1092C-0.0752201 33.7901 1.19009 36.3609 3.46341 38.2571L54.9692 81.2084C59.5541 85.0327 66.9758 85.109 71.5565 81.2829L96.5672 60.379C101.148 56.5547 101.144 50.2768 96.5587 46.4525ZM18.3877 26.9351C14.7832 23.9311 14.7811 19.0611 18.3771 16.0517C21.9753 13.0459 27.8127 13.0459 31.413 16.0464C35.0133 19.0504 35.0155 23.924 31.4194 26.928C27.8212 29.9356 21.9859 29.9356 18.3877 26.9351ZM35.7789 40.0822C34.4966 39.024 33.5609 37.7049 33.2759 36.8918L35.8618 35.5655C36.1957 36.4177 36.8996 37.5753 37.982 38.4666C39.1474 39.4271 40.2383 39.5318 40.9656 38.9211C41.6546 38.337 41.5185 37.5646 40.6424 36.0484C39.4196 33.9712 39.224 32.1087 40.8359 30.7452C42.7243 29.1473 45.7696 29.2396 48.4172 31.4199C49.6804 32.4638 50.3481 33.4545 50.7202 34.2535L48.1343 35.498C47.8983 34.9494 47.4113 34.0226 46.3119 33.1172C45.2103 32.2117 44.1874 32.1904 43.6132 32.6786C42.9051 33.2752 43.2262 34.0599 44.1364 35.7111C45.391 37.957 45.3038 39.5869 43.7472 40.9096C41.8864 42.479 38.8582 42.6193 35.7789 40.0822ZM48.0535 49.9217L50.0291 46.804L46.8137 44.1533L43.1751 45.9021L40.5424 43.7307L55.0457 37.1865L58.3759 39.9331L50.7798 52.1676L48.0535 49.9217ZM51.4582 52.7251L62.5313 43.3561L65.0832 45.4564L56.1069 53.0429L60.5706 56.7216L58.4674 58.5006L51.4582 52.7251ZM75.0845 57.1299L70.7058 53.5222L68.4028 55.4681L72.5326 58.8716L70.4932 60.5974L66.3655 57.1938L63.7392 59.4149L68.3496 63.2179L66.2974 64.956L59.1394 59.058L70.2167 49.6909L77.1387 55.3989L75.0845 57.1299Z" fill="#FFAC5F"/>
</svg>
